<svg width="0" height="0" class="hidden">
  <symbol fill="none" xmlns="http://www.w3.org/2000/svg" viewBox="0 0 14 24" id="bluetooth">
    <path d="M13.205 17.521L8.164 12l5.041-5.52a.86.86 0 00-.089-1.244L6.987.196a.858.858 0 00-1.405.663v8.315L2.064 5.32A.86.86 0 00.795 6.48l4.787 5.242v.556L.795 17.521a.859.859 0 101.269 1.159l3.518-3.853v8.314a.86.86 0 001.405.664l6.13-5.04a.86.86 0 00.088-1.244zM7.301 2.678l4.025 3.31-4.025 4.409V2.678zm0 18.644v-7.718l4.025 4.408-4.025 3.31z" fill="#000"></path>
  </symbol>
  <symbol fill="none" xmlns="http://www.w3.org/2000/svg" viewBox="0 0 24 24" id="garanti">
    <path d="M24 1.781H0v17.446h14.764v3.027l2.624-1.282 2.624 1.282v-3.027H24V1.78zm-6.612 14.632a2.393 2.393 0 01-2.39-2.39 2.393 2.393 0 012.39-2.391 2.393 2.393 0 012.391 2.39 2.393 2.393 0 01-2.39 2.391zm0 2.994l-1.217.595v-2.384a3.776 3.776 0 002.435 0v2.384l-1.218-.595zm5.206-1.587h-2.582v-1.057a3.786 3.786 0 001.173-2.74 3.801 3.801 0 00-3.797-3.797 3.801 3.801 0 00-3.796 3.796c0 1.077.45 2.05 1.172 2.74v1.058H1.406V3.187h21.188V17.82z" fill="#000"></path>
    <path d="M2.814 7.41h18.372v1.407H2.814V7.41zm2.111-2.814h14.15v1.406H4.925V4.596zm-2.111 10.41h6.84v1.406h-6.84v-1.406zm0-2.816h6.84v1.407h-6.84v-1.406z" fill="#000"></path>
  </symbol>
  <symbol fill="none" xmlns="http://www.w3.org/2000/svg" viewBox="0 0 24 24" id="kg">
    <path d="M20.337 6.4h-5.363a3.885 3.885 0 00.906-2.497A3.907 3.907 0 0011.977 0a3.907 3.907 0 00-3.903 3.903c0 .949.34 1.82.906 2.497H3.617L.28 24h23.392L20.337 6.4zm-8.36-4.994a2.5 2.5 0 012.497 2.497A2.5 2.5 0 0111.977 6.4 2.5 2.5 0 019.48 3.903a2.5 2.5 0 012.497-2.497zm-7.196 6.4h14.392l2.802 14.788H1.979L4.781 7.806z" fill="#000"></path>
    <path d="M12.005 12.403H10.41L8.178 14.63v-2.228H7.03v5.62h1.147v-1.921l.578-.564 1.748 2.485h1.481l-2.41-3.273 2.43-2.347z" fill="#000"></path>
    <path d="M14.275 16h1.515v.617a2.339 2.339 0 01-.494.26 2.065 2.065 0 01-.778.153c-.303 0-.592-.067-.86-.2a1.28 1.28 0 01-.588-.587c-.14-.275-.212-.628-.212-1.048 0-.34.06-.66.18-.948.066-.16.162-.309.283-.444.115-.128.273-.234.467-.315.198-.083.44-.125.72-.125.227 0 .435.04.619.117a.96.96 0 01.398.288c.097.127.181.31.25.543l.064.22 1.056-.29-.056-.222c-.097-.377-.243-.69-.434-.93a1.913 1.913 0 00-.804-.576 2.937 2.937 0 00-1.097-.198c-.55 0-1.045.116-1.47.344a2.33 2.33 0 00-1.006 1.072 3.434 3.434 0 00-.338 1.506c0 .542.115 1.04.342 1.481.233.452.581.802 1.036 1.04.446.234.947.353 1.488.353.402 0 .799-.073 1.18-.218a4.099 4.099 0 001.1-.638l.087-.07v-2.258l-2.648.004v1.07z" fill="#000"></path>
  </symbol>
  <symbol fill="none" xmlns="http://www.w3.org/2000/svg" viewBox="0 0 15 29" id="left">
    <path d="M14 28L1.914 15.914a2 2 0 010-2.828L14 1" stroke="#000" stroke-width="2" stroke-linecap="round"></path>
  </symbol>
  <symbol fill="none" xmlns="http://www.w3.org/2000/svg" viewBox="0 0 42 42" id="Param">
    <path d="M21 10.111c-6.005 0-10.889 4.884-10.889 10.889 0 6.004 4.884 10.889 10.889 10.889 6.004 0 10.889-4.885 10.889-10.889 0-6.005-4.885-10.889-10.889-10.889zm0 20.222c-5.147 0-9.333-4.186-9.333-9.333s4.186-9.333 9.333-9.333c5.146 0 9.333 4.186 9.333 9.333 0 5.146-4.186 9.333-9.333 9.333z" fill="#fff"></path>
    <path d="M39.838 16.333h-1.57c-.4-1.487-.99-2.91-1.758-4.244l1.11-1.11a2.15 2.15 0 00.633-1.528c0-.578-.225-1.121-.633-1.53L34.078 4.38c-.816-.816-2.24-.818-3.059 0L29.91 5.489a17.776 17.776 0 00-4.243-1.757v-1.57C25.667.97 24.697 0 23.504 0h-5.008c-1.193 0-2.163.97-2.163 2.162v1.57c-1.486.4-2.909.99-4.244 1.758l-1.11-1.11c-.817-.818-2.241-.816-3.058 0L4.38 7.922a2.15 2.15 0 00-.633 1.53c0 .577.224 1.12.633 1.529l1.109 1.109a17.705 17.705 0 00-1.757 4.243h-1.57C.97 16.333 0 17.303 0 18.496v5.008c0 1.193.97 2.163 2.162 2.163h1.57c.4 1.486.99 2.909 1.758 4.244l-1.11 1.11a2.15 2.15 0 00-.633 1.528c0 .578.225 1.121.633 1.53l3.542 3.541c.816.818 2.241.819 3.059 0l1.109-1.109a17.798 17.798 0 004.244 1.758v1.57c0 1.192.97 2.162 2.162 2.162h5.008c1.193 0 2.163-.97 2.163-2.162v-1.57c1.486-.4 2.909-.99 4.244-1.758l1.11 1.11c.817.818 2.24.816 3.058 0l3.541-3.542a2.15 2.15 0 00.633-1.53 2.15 2.15 0 00-.633-1.529l-1.109-1.109a17.798 17.798 0 001.758-4.244h1.57c1.192 0 2.162-.97 2.162-2.163v-5.008a2.166 2.166 0 00-2.163-2.163zm.606 7.171a.607.607 0 01-.606.607h-2.794l-.14.601a16.245 16.245 0 01-2.032 4.909l-.327.524 1.975 1.975a.607.607 0 010 .859l-3.541 3.54a.607.607 0 01-.86 0l-1.974-1.974-.524.327a16.208 16.208 0 01-4.909 2.032l-.6.14v2.794a.607.607 0 01-.608.606h-5.008a.607.607 0 01-.607-.606v-2.794l-.601-.14a16.245 16.245 0 01-4.909-2.032l-.524-.327L9.88 36.52a.607.607 0 01-.859 0l-3.54-3.541a.607.607 0 010-.86l1.974-1.974-.327-.524a16.208 16.208 0 01-2.032-4.909l-.14-.6H2.162a.607.607 0 01-.606-.608v-5.008c0-.335.272-.607.606-.607h2.794l.14-.601a16.228 16.228 0 012.032-4.909l.327-.524L5.48 9.88a.607.607 0 010-.859l3.541-3.54a.607.607 0 01.86 0l1.974 1.974.524-.327a16.208 16.208 0 014.909-2.032l.6-.14V2.162c0-.334.273-.606.608-.606h5.008c.335 0 .607.272.607.606v2.794l.601.14a16.245 16.245 0 014.909 2.032l.524.327L32.12 5.48a.607.607 0 01.859 0l3.54 3.541a.607.607 0 010 .86l-1.974 1.974.327.524a16.19 16.19 0 012.032 4.909l.14.6h2.794c.334 0 .606.273.606.608v5.008z" fill="#fff"></path>
    <path d="M21 13.222c-4.289 0-7.778 3.49-7.778 7.778 0 4.289 3.49 7.778 7.778 7.778 4.289 0 7.778-3.49 7.778-7.778 0-4.289-3.49-7.778-7.778-7.778zm0 14A6.23 6.23 0 0114.778 21 6.23 6.23 0 0121 14.778 6.23 6.23 0 0127.222 21 6.23 6.23 0 0121 27.222z" fill="#fff"></path>
  </symbol>
  <symbol fill="none" xmlns="http://www.w3.org/2000/svg" viewBox="0 0 24 24" id="power">
    <g clip-path="url(#clip0)" fill="#000">
      <path d="M22.08 7.227v-2.1a.706.706 0 00-.706-.707h-3.278a.706.706 0 00-.706.706v2.101a.706.706 0 00-.642.703v3.796a1.57 1.57 0 001.568 1.568h.713v7.52c0 .978-.796 1.774-1.774 1.774H9.538a1.776 1.776 0 01-1.774-1.774v-1.52h1.501c.39 0 .706-.316.706-.706v-2.29h.75a2.12 2.12 0 002.118-2.118V7.778c0-.952-.632-1.76-1.498-2.025v-2.42a.706.706 0 00-.706-.706h-.988V.706a.706.706 0 00-1.412 0v1.92H5.881V.707a.706.706 0 00-1.411 0v1.92h-.988a.706.706 0 00-.706.707v2.42a2.121 2.121 0 00-1.498 2.025v6.402a2.12 2.12 0 002.118 2.118h.75v2.29c0 .39.315.706.705.706h1.501v1.52A3.19 3.19 0 009.538 24h7.717a3.19 3.19 0 003.186-3.186v-7.52h.713a1.57 1.57 0 001.568-1.568V7.93a.706.706 0 00-.642-.703zM9.929 4.04v1.62H4.188V4.039h5.74zm-7.24 10.14V7.778c0-.389.317-.706.707-.706h7.325c.39 0 .706.317.706.706v6.402c0 .39-.317.706-.706.706H3.396a.707.707 0 01-.706-.706zm2.868 2.118H8.56v1.584H5.557v-1.584zM20.668 5.832v1.392h-1.866V5.832h1.866zm.642 5.894c0 .086-.07.156-.156.156h-2.838a.157.157 0 01-.156-.156v-3.09h3.15v3.09z"></path>
      <path d="M6.164 11.685h.716l-.312.724a.706.706 0 001.296.559l.737-1.71a.706.706 0 00-.648-.985h-.716l.312-.723a.706.706 0 00-1.296-.56l-.737 1.71a.706.706 0 00.648.985z"></path>
    </g>
    <defs>
      <clipPath id="clip0">
        <path fill="#fff" d="M0 0h24v24H0z"></path>
      </clipPath>
    </defs>
  </symbol>
  <symbol fill="none" xmlns="http://www.w3.org/2000/svg" viewBox="0 0 15 29" id="right">
    <path d="M1 1l12.086 12.086a2 2 0 010 2.828L1 28" stroke="#000" stroke-width="2" stroke-linecap="round"></path>
  </symbol>
  <symbol fill="none" xmlns="http://www.w3.org/2000/svg" viewBox="0 0 24 24" id="road">
    <path d="M5.25 4.5A5.256 5.256 0 000 9.75c0 2.694 4.212 7.465 4.692 8.001A.754.754 0 005.25 18a.754.754 0 00.558-.249c.48-.536 4.692-5.307 4.692-8.001A5.256 5.256 0 005.25 4.5zm0 11.605C3.612 14.163 1.5 11.181 1.5 9.75A3.755 3.755 0 015.25 6 3.755 3.755 0 019 9.75c0 1.43-2.112 4.413-3.75 6.355z" fill="#000"></path>
    <path d="M5.25 7.5C4.01 7.5 3 8.51 3 9.75S4.01 12 5.25 12 7.5 10.99 7.5 9.75 6.49 7.5 5.25 7.5zm0 3a.75.75 0 110-1.5.75.75 0 010 1.5zm18-10.5h-6a.75.75 0 00-.75.75v7.5a.75.75 0 001.5 0V6h5.25a.75.75 0 00.75-.75V.75a.75.75 0 00-.75-.75zm-.75 4.5H18v-3h4.5v3zm-1.5 12h-7.5c-.826 0-1.5-.674-1.5-1.5s.674-1.5 1.5-1.5h1.638c.31.871 1.135 1.5 2.112 1.5 1.24 0 2.25-1.01 2.25-2.25s-1.01-2.25-2.25-2.25c-.977 0-1.802.629-2.112 1.5H13.5c-1.655 0-3 1.345-3 3 0 1.654 1.345 3 3 3H21c.826 0 1.5.674 1.5 1.5S21.826 21 21 21H7.362a2.246 2.246 0 00-2.112-1.5C4.01 19.5 3 20.51 3 21.75S4.01 24 5.25 24c.976 0 1.801-.628 2.112-1.5H21c1.654 0 3-1.346 3-3s-1.346-3-3-3zM17.25 12a.75.75 0 110 1.5.75.75 0 010-1.5zm-12 10.5a.75.75 0 110-1.5.75.75 0 010 1.5z" fill="#000"></path>
  </symbol>
</svg>